<svg width="26" height="25" viewBox="0 0 26 25" fill="none" xmlns="http://www.w3.org/2000/svg">
<path d="M2.0625 1.5625V23.4375H23.9375V1.5625H2.0625ZM13.7812 18.5547C13.7812 20.6841 12.5234 21.7222 10.7026 21.7222C9.05811 21.7222 8.10352 20.8706 7.61914 19.8428L9.29297 18.8296C9.61572 19.4023 9.86084 19.8867 10.5654 19.8867C11.1514 19.8867 11.6328 19.6226 11.6328 18.5947V11.7188H13.7812V18.5547ZM18.6323 21.6733C16.7236 21.6733 15.4902 20.812 14.8882 19.6226L16.5645 18.6523C17.0039 19.3721 17.5776 19.8516 18.5908 19.8516C19.4424 19.8516 19.937 19.4746 19.937 18.8872C19.937 18.1826 19.4277 17.9331 18.4878 17.52L17.9741 17.2993C16.4907 16.6685 15.5073 15.8755 15.5073 14.2012C15.5073 12.6597 16.6816 11.5337 18.5171 11.5337C19.8242 11.5337 20.7632 11.9399 21.4395 13.1294L19.8359 14.1602C19.4834 13.5288 19.1035 13.2812 18.5146 13.2812C17.9126 13.2812 17.5308 13.6631 17.5308 14.1602C17.5308 14.7769 17.9126 15.0264 18.7935 15.4082L19.3071 15.6284C21.0547 16.3774 22.0386 17.1421 22.0386 18.8589C22.0391 20.7095 20.5854 21.6733 18.6323 21.6733Z" fill="black"/>
</svg>
