<svg width="26" height="25" viewBox="0 0 26 25" fill="none" xmlns="http://www.w3.org/2000/svg">
<g clip-path="url(#clip0_129_1292)">
<path d="M25.2559 10.3105C25.1865 10.2524 24.5601 9.77637 23.2153 9.77637C22.8617 9.77841 22.5088 9.80944 22.1602 9.86914C21.9053 8.0918 20.4326 7.23242 20.3745 7.18359L20.0151 6.97461L19.7832 7.31152C19.4908 7.76892 19.2753 8.27119 19.1455 8.79834C18.9014 9.80908 19.0527 10.7612 19.563 11.5742C18.9482 11.9229 17.9517 12.0039 17.7427 12.0137H1.27832C1.17572 12.0136 1.07412 12.0338 0.979372 12.0732C0.884625 12.1126 0.798602 12.1703 0.726258 12.243C0.653914 12.3158 0.596677 12.4021 0.557846 12.4971C0.519014 12.5921 0.499354 12.6938 0.499998 12.7964C0.477881 14.2419 0.72202 15.679 1.22021 17.0361C1.78857 18.5229 2.63476 19.6289 3.72265 20.2998C4.9541 21.0547 6.95996 21.4844 9.2207 21.4844C10.2435 21.4844 11.2642 21.3911 12.27 21.2056C13.6723 20.9513 15.0211 20.4604 16.2588 19.7539C17.2777 19.1619 18.194 18.4088 18.9722 17.5239C20.2822 16.0488 21.0591 14.3989 21.6274 12.9341H21.8594C23.2856 12.9341 24.167 12.3647 24.6538 11.877C24.9769 11.5707 25.2301 11.1983 25.396 10.7852L25.5005 10.4834L25.2559 10.3105Z" fill="black"/>
<path d="M2.80908 11.5415H5.01172C5.06352 11.5415 5.1132 11.5209 5.14983 11.4843C5.18645 11.4477 5.20703 11.398 5.20703 11.3462V9.36963C5.20703 9.31783 5.18645 9.26815 5.14983 9.23152C5.1132 9.19489 5.06352 9.17432 5.01172 9.17432H2.80908C2.75728 9.17432 2.7076 9.19489 2.67098 9.23152C2.63435 9.26815 2.61377 9.31783 2.61377 9.36963V11.3442C2.6157 11.3954 2.6369 11.444 2.67312 11.4802C2.70934 11.5164 2.7579 11.5376 2.80908 11.5395M5.84668 11.5415H8.0498C8.1016 11.5415 8.15128 11.5209 8.18791 11.4843C8.22454 11.4477 8.24512 11.398 8.24512 11.3462V9.36963C8.24512 9.31783 8.22454 9.26815 8.18791 9.23152C8.15128 9.19489 8.1016 9.17432 8.0498 9.17432H5.84668C5.79488 9.17432 5.7452 9.19489 5.70857 9.23152C5.67194 9.26815 5.65137 9.31783 5.65137 9.36963V11.3442C5.6533 11.3954 5.6745 11.444 5.71072 11.4802C5.74693 11.5164 5.7955 11.5376 5.84668 11.5395M8.94238 11.5415H11.1445C11.1963 11.5415 11.246 11.5209 11.2826 11.4843C11.3193 11.4477 11.3398 11.398 11.3398 11.3462V9.36963C11.3398 9.31783 11.3193 9.26815 11.2826 9.23152C11.246 9.19489 11.1963 9.17432 11.1445 9.17432H8.94238C8.89058 9.17432 8.8409 9.19489 8.80428 9.23152C8.76765 9.26815 8.74707 9.31783 8.74707 9.36963V11.3442C8.74619 11.3701 8.75063 11.3959 8.76013 11.42C8.76964 11.4441 8.78399 11.466 8.80231 11.4843C8.82062 11.5026 8.84251 11.517 8.86661 11.5265C8.8907 11.536 8.91649 11.5404 8.94238 11.5395M11.9922 11.5415H14.1953C14.2471 11.5415 14.2968 11.5209 14.3334 11.4843C14.37 11.4477 14.3906 11.398 14.3906 11.3462V9.36963C14.3906 9.31783 14.37 9.26815 14.3334 9.23152C14.2968 9.19489 14.2471 9.17432 14.1953 9.17432H11.9922C11.9404 9.17432 11.8907 9.19489 11.8541 9.23152C11.8175 9.26815 11.7969 9.31783 11.7969 9.36963V11.3442C11.7969 11.396 11.8175 11.4457 11.8541 11.4823C11.8907 11.519 11.9404 11.5395 11.9922 11.5395M5.84668 8.71924H8.0498C8.10099 8.7173 8.14955 8.69611 8.18577 8.65989C8.22199 8.62367 8.24318 8.57511 8.24512 8.52393V6.54736C8.24512 6.49556 8.22454 6.44588 8.18791 6.40926C8.15128 6.37263 8.1016 6.35205 8.0498 6.35205H5.84668C5.79488 6.35205 5.7452 6.37263 5.70857 6.40926C5.67194 6.44588 5.65137 6.49556 5.65137 6.54736V8.52197C5.65519 8.5725 5.677 8.61999 5.71283 8.65582C5.74866 8.69165 5.79615 8.71346 5.84668 8.71728M8.94238 8.71924H11.1445C11.1957 8.7173 11.2443 8.69611 11.2805 8.65989C11.3167 8.62367 11.3379 8.57511 11.3398 8.52393V6.54736C11.3398 6.49556 11.3193 6.44588 11.2826 6.40926C11.246 6.37263 11.1963 6.35205 11.1445 6.35205H8.94238C8.89058 6.35205 8.8409 6.37263 8.80428 6.40926C8.76765 6.44588 8.74707 6.49556 8.74707 6.54736V8.52197C8.74707 8.57377 8.76765 8.62345 8.80428 8.66008C8.8409 8.69671 8.89058 8.71728 8.94238 8.71728M11.9922 8.71924H14.1953C14.2465 8.7173 14.2951 8.69611 14.3313 8.65989C14.3675 8.62367 14.3887 8.57511 14.3906 8.52393V6.54736C14.3887 6.49618 14.3675 6.44762 14.3313 6.4114C14.2951 6.37518 14.2465 6.35398 14.1953 6.35205H11.9922C11.9404 6.35205 11.8907 6.37263 11.8541 6.40926C11.8175 6.44588 11.7969 6.49556 11.7969 6.54736V8.52197C11.7988 8.57315 11.82 8.62172 11.8562 8.65794C11.8924 8.69415 11.941 8.71535 11.9922 8.71728M11.9922 5.88525H14.1953C14.2471 5.88525 14.2968 5.86468 14.3334 5.82805C14.37 5.79142 14.3906 5.74174 14.3906 5.68994V3.71094C14.3887 3.65975 14.3675 3.61119 14.3313 3.57497C14.2951 3.53876 14.2465 3.51756 14.1953 3.51562H11.9922C11.9404 3.51562 11.8907 3.5362 11.8541 3.57283C11.8175 3.60946 11.7969 3.65914 11.7969 3.71094V5.68555C11.7989 5.73669 11.8202 5.78519 11.8563 5.82139C11.8925 5.85758 11.941 5.87881 11.9922 5.88086M15.0645 11.5415H17.2676C17.3194 11.5415 17.3691 11.5209 17.4057 11.4843C17.4423 11.4477 17.4629 11.398 17.4629 11.3462V9.36963C17.4629 9.31783 17.4423 9.26815 17.4057 9.23152C17.3691 9.19489 17.3194 9.17432 17.2676 9.17432H15.0645C15.0127 9.17432 14.963 9.19489 14.9263 9.23152C14.8897 9.26815 14.8691 9.31783 14.8691 9.36963V11.3442C14.8711 11.3954 14.8923 11.444 14.9285 11.4802C14.9647 11.5164 15.0133 11.5376 15.0645 11.5395" fill="black"/>
</g>
<defs>
<clipPath id="clip0_129_1292">
<rect width="25" height="25" fill="white" transform="translate(0.5)"/>
</clipPath>
</defs>
</svg>
