<svg width="26" height="25" viewBox="0 0 26 25" fill="none" xmlns="http://www.w3.org/2000/svg">
<path d="M13 1.5625C6.95996 1.5625 2.0625 6.58691 2.0625 12.7783C2.0625 17.7344 5.19727 21.9336 9.54297 23.418C9.60392 23.4312 9.66614 23.4378 9.72852 23.4375C10.1338 23.4375 10.29 23.1396 10.29 22.8809C10.29 22.6123 10.2803 21.9092 10.2754 20.9717C9.91359 21.0565 9.54347 21.1007 9.17188 21.1035C7.06738 21.1035 6.58887 19.4678 6.58887 19.4678C6.09082 18.1738 5.37305 17.8271 5.37305 17.8271C4.4209 17.1582 5.36816 17.1387 5.44141 17.1387H5.44629C6.54492 17.2363 7.12109 18.3008 7.12109 18.3008C7.66797 19.2578 8.40039 19.5264 9.05469 19.5264C9.48732 19.5177 9.91326 19.4179 10.3047 19.2334C10.4023 18.5107 10.6855 18.0176 10.998 17.7344C8.57129 17.4512 6.01758 16.4893 6.01758 12.1924C6.01758 10.9668 6.44238 9.96582 7.14062 9.18457C7.02832 8.90137 6.65234 7.75879 7.24805 6.21582C7.32795 6.1967 7.41008 6.18849 7.49219 6.19141C7.8877 6.19141 8.78125 6.34277 10.2559 7.36816C12.0476 6.86685 13.9426 6.86685 15.7344 7.36816C17.209 6.34277 18.1025 6.19141 18.498 6.19141C18.5802 6.18849 18.6623 6.1967 18.7422 6.21582C19.3379 7.75879 18.9619 8.90137 18.8496 9.18457C19.5479 9.9707 19.9727 10.9717 19.9727 12.1924C19.9727 16.499 17.4141 17.4463 14.9775 17.7246C15.3682 18.0713 15.7197 18.7549 15.7197 19.7998C15.7197 21.2988 15.7051 22.5098 15.7051 22.876C15.7051 23.1396 15.8564 23.4375 16.2617 23.4375C16.3273 23.4378 16.3928 23.4312 16.457 23.418C20.8076 21.9336 23.9375 17.7295 23.9375 12.7783C23.9375 6.58691 19.04 1.5625 13 1.5625Z" fill="black"/>
</svg>
