<svg width="26" height="25" viewBox="0 0 26 25" fill="none" xmlns="http://www.w3.org/2000/svg">
<g clip-path="url(#clip0_129_1300)">
<path d="M25.1861 11.4561C25.0259 11.2837 23.8765 9.87939 23.2569 9.12256C22.9273 8.72021 22.667 8.40234 22.5576 8.27051L22.5489 8.25977L22.5391 8.24951C22.2842 7.96484 21.9219 7.63867 21.378 7.63867C21.2895 7.63981 21.2013 7.64699 21.1138 7.66016C21.0957 7.6626 21.0772 7.66553 21.0576 7.66748C20.938 7.68066 20.5664 7.74072 19.6836 7.88623C19 7.99805 17.9693 8.16797 17.813 8.18262L17.7783 8.18555L17.7447 8.19189C17.2564 8.27881 16.9331 8.49561 16.7896 8.83594C16.7139 9.01563 16.6324 9.38037 16.9331 9.80566C17.0078 9.91406 17.2666 10.2725 17.7115 10.8882C18.0074 11.2983 18.3399 11.7583 18.627 12.1577L13.1905 13.4277L7.85647 4.68994L7.84671 4.67334L7.83548 4.65723L7.81399 4.62549C7.59573 4.30518 7.32425 3.90625 6.54007 3.90625C6.48489 3.90625 6.42727 3.90625 6.36282 3.91162C6.13821 3.92383 5.31692 3.98828 4.36624 4.06348C3.31692 4.146 1.88089 4.25879 1.69436 4.26367H1.65872L1.62015 4.26758C1.17386 4.31104 0.850126 4.49219 0.658232 4.80469C0.338408 5.32666 0.588896 5.9126 0.670927 6.10498C0.835478 6.49414 2.33401 9.65332 3.65579 12.4419C4.5347 14.2944 5.44192 16.21 5.51614 16.3799C5.64666 16.6973 5.8701 16.9678 6.15714 17.156C6.44418 17.3441 6.78141 17.4411 7.12454 17.4341C7.28648 17.4334 7.44787 17.4153 7.60599 17.3804H7.61624L7.62601 17.3779C8.30276 17.2129 10.4497 16.668 11.9815 16.2749C12.0742 16.437 12.1719 16.6084 12.2744 16.7847C13.3452 18.6646 14.125 20.0244 14.3819 20.3716C14.5137 20.5566 14.9043 21.0938 15.6397 21.0938C15.9063 21.0938 16.1504 21.0254 16.4082 20.9526L16.4829 20.9316H16.4888C17.003 20.7852 23.8467 18.3848 24.1973 18.229L24.208 18.2241C24.4737 18.1064 24.875 17.9287 24.9981 17.4722C25.0786 17.1733 25.0069 16.8701 24.7842 16.5708L24.7808 16.5664L24.7774 16.562C24.7359 16.5083 24.5821 16.3076 24.3736 16.0298C23.9278 15.4404 23.2075 14.4883 22.5747 13.6597C23.4229 13.4399 24.4693 13.166 24.6929 13.0957C25.253 12.9282 25.4224 12.5737 25.4741 12.3765C25.5127 12.2227 25.563 11.8296 25.1861 11.4561ZM9.56106 14.2974C8.69144 14.501 8.08548 14.6431 7.71097 14.7319C7.38528 14.0806 6.7471 12.7959 6.12405 11.542C4.6719 8.61621 3.9219 7.10986 3.52737 6.32227L3.92532 6.28809C4.57669 6.23193 5.46878 6.15527 5.96536 6.11377C6.78372 7.49365 9.59427 12.2319 10.6675 14.0386L9.56106 14.2974ZM18.2603 17.5513C17.0782 17.9419 16.4375 18.1553 16.0913 18.271C15.7837 17.7661 15.107 16.6343 14.5059 15.625L20.1553 14.1855C20.3994 14.5181 20.8667 15.1484 21.7891 16.3794C20.9068 16.6743 19.4356 17.1616 18.2603 17.5513ZM20.9883 11.6123L19.8282 10.0728C20.4956 9.95605 20.8799 9.88867 21.105 9.84814L21.6909 10.5747L22.274 11.2983C21.8736 11.3955 21.4077 11.5093 20.9883 11.6123Z" fill="black"/>
</g>
<defs>
<clipPath id="clip0_129_1300">
<rect width="25" height="25" fill="white" transform="translate(0.5)"/>
</clipPath>
</defs>
</svg>
