<svg width="104" height="60" viewBox="0 0 104 60" fill="none" xmlns="http://www.w3.org/2000/svg">
<g filter="url(#filter0_d_60_1987)">
<g clip-path="url(#clip0_60_1987)">
<mask id="mask0_60_1987" style="mask-type:luminance" maskUnits="userSpaceOnUse" x="0" y="0" width="100" height="60">
<path d="M0 0V60H100V0H0Z" fill="white"/>
</mask>
<g mask="url(#mask0_60_1987)">
<path d="M0 0V60H100V0H0Z" fill="#012169"/>
<path d="M0 0L100 60L0 0ZM100 0L0 60L100 0Z" fill="black"/>
<path d="M0 0L100 60M100 0L0 60" stroke="white" stroke-width="6"/>
<mask id="mask1_60_1987" style="mask-type:luminance" maskUnits="userSpaceOnUse" x="0" y="0" width="100" height="60">
<path d="M50 30H100V60L50 30ZM50 30V60H0L50 30ZM50 30H0V0L50 30ZM50 30V0H100L50 30Z" fill="white"/>
</mask>
<g mask="url(#mask1_60_1987)">
<path d="M0 0L100 60L0 0ZM100 0L0 60L100 0Z" fill="black"/>
<path d="M0 0L100 60M100 0L0 60" stroke="#C8102E" stroke-width="4"/>
</g>
<path d="M50 0V60V0ZM0 30H100H0Z" fill="black"/>
<path d="M50 0V60M0 30H100" stroke="white" stroke-width="6"/>
<path d="M50 0V60V0ZM0 30H100H0Z" fill="black"/>
<path d="M50 0V60M0 30H100" stroke="#C8102E" stroke-width="3"/>
</g>
</g>
</g>
<defs>
<filter id="filter0_d_60_1987" x="-4" y="0" width="108" height="68" filterUnits="userSpaceOnUse" color-interpolation-filters="sRGB">
<feFlood flood-opacity="0" result="BackgroundImageFix"/>
<feColorMatrix in="SourceAlpha" type="matrix" values="0 0 0 0 0 0 0 0 0 0 0 0 0 0 0 0 0 0 127 0" result="hardAlpha"/>
<feOffset dy="4"/>
<feGaussianBlur stdDeviation="2"/>
<feComposite in2="hardAlpha" operator="out"/>
<feColorMatrix type="matrix" values="0 0 0 0 0 0 0 0 0 0 0 0 0 0 0 0 0 0 0.25 0"/>
<feBlend mode="normal" in2="BackgroundImageFix" result="effect1_dropShadow_60_1987"/>
<feBlend mode="normal" in="SourceGraphic" in2="effect1_dropShadow_60_1987" result="shape"/>
</filter>
<clipPath id="clip0_60_1987">
<rect width="100" height="60" rx="3" fill="white"/>
</clipPath>
</defs>
</svg>
